<mxfile host="app.diagrams.net" modified="2022-07-31T09:32:31.384Z" agent="5.0 (Macintosh; Intel Mac OS X 10_15_7) AppleWebKit/537.36 (KHTML, like Gecko) Chrome/103.0.0.0 Safari/537.36" etag="sprDdvr8MeblC4bWY71e" version="20.2.2" type="github">
  <diagram id="prtHgNgQTEPvFCAcTncT" name="Page-1">
    <mxGraphModel dx="823" dy="487" grid="1" gridSize="10" guides="1" tooltips="1" connect="1" arrows="1" fold="1" page="1" pageScale="1" pageWidth="827" pageHeight="1169" math="0" shadow="0">
      <root>
        <mxCell id="0" />
        <mxCell id="1" parent="0" />
        <mxCell id="kJdzf6EdsDRsMMQySTQ5-7" value="" style="edgeStyle=orthogonalEdgeStyle;rounded=0;orthogonalLoop=1;jettySize=auto;html=1;fillColor=#d5e8d4;strokeColor=#82b366;" edge="1" parent="1" source="kJdzf6EdsDRsMMQySTQ5-5" target="kJdzf6EdsDRsMMQySTQ5-6">
          <mxGeometry relative="1" as="geometry" />
        </mxCell>
        <mxCell id="kJdzf6EdsDRsMMQySTQ5-5" value="0&lt;br&gt;hash:aaaabb" style="rounded=0;whiteSpace=wrap;html=1;fillColor=#d5e8d4;strokeColor=#82b366;" vertex="1" parent="1">
          <mxGeometry x="230" y="150" width="120" height="60" as="geometry" />
        </mxCell>
        <mxCell id="kJdzf6EdsDRsMMQySTQ5-9" value="" style="edgeStyle=orthogonalEdgeStyle;rounded=0;orthogonalLoop=1;jettySize=auto;html=1;fillColor=#d5e8d4;strokeColor=#82b366;" edge="1" parent="1" source="kJdzf6EdsDRsMMQySTQ5-6" target="kJdzf6EdsDRsMMQySTQ5-8">
          <mxGeometry relative="1" as="geometry" />
        </mxCell>
        <mxCell id="kJdzf6EdsDRsMMQySTQ5-6" value="1" style="rounded=0;whiteSpace=wrap;html=1;fillColor=#d5e8d4;strokeColor=#82b366;" vertex="1" parent="1">
          <mxGeometry x="430" y="150" width="120" height="60" as="geometry" />
        </mxCell>
        <mxCell id="kJdzf6EdsDRsMMQySTQ5-11" value="" style="edgeStyle=orthogonalEdgeStyle;rounded=0;orthogonalLoop=1;jettySize=auto;html=1;fillColor=#d5e8d4;strokeColor=#82b366;" edge="1" parent="1" source="kJdzf6EdsDRsMMQySTQ5-8" target="kJdzf6EdsDRsMMQySTQ5-10">
          <mxGeometry relative="1" as="geometry" />
        </mxCell>
        <mxCell id="kJdzf6EdsDRsMMQySTQ5-8" value="2" style="rounded=0;whiteSpace=wrap;html=1;fillColor=#d5e8d4;strokeColor=#82b366;" vertex="1" parent="1">
          <mxGeometry x="630" y="150" width="120" height="60" as="geometry" />
        </mxCell>
        <mxCell id="kJdzf6EdsDRsMMQySTQ5-10" value="3&lt;br&gt;hash:cccdddaa03" style="rounded=0;whiteSpace=wrap;html=1;fillColor=#d5e8d4;strokeColor=#82b366;" vertex="1" parent="1">
          <mxGeometry x="830" y="150" width="120" height="60" as="geometry" />
        </mxCell>
        <mxCell id="kJdzf6EdsDRsMMQySTQ5-20" value="" style="edgeStyle=orthogonalEdgeStyle;rounded=0;orthogonalLoop=1;jettySize=auto;html=1;" edge="1" parent="1" source="kJdzf6EdsDRsMMQySTQ5-12" target="kJdzf6EdsDRsMMQySTQ5-19">
          <mxGeometry relative="1" as="geometry" />
        </mxCell>
        <mxCell id="kJdzf6EdsDRsMMQySTQ5-12" value="4&lt;br&gt;hash:bbccdd11&lt;br&gt;parent hash:cccdddaa03" style="rounded=0;whiteSpace=wrap;html=1;fillColor=#d5e8d4;strokeColor=#82b366;" vertex="1" parent="1">
          <mxGeometry x="1060" y="50" width="150" height="60" as="geometry" />
        </mxCell>
        <mxCell id="kJdzf6EdsDRsMMQySTQ5-16" value="" style="endArrow=classic;html=1;rounded=0;exitX=1;exitY=0.25;exitDx=0;exitDy=0;entryX=0;entryY=0.5;entryDx=0;entryDy=0;fillColor=#d5e8d4;strokeColor=#82b366;" edge="1" parent="1" source="kJdzf6EdsDRsMMQySTQ5-10" target="kJdzf6EdsDRsMMQySTQ5-12">
          <mxGeometry width="50" height="50" relative="1" as="geometry">
            <mxPoint x="970" y="120" as="sourcePoint" />
            <mxPoint x="1020" y="70" as="targetPoint" />
          </mxGeometry>
        </mxCell>
        <mxCell id="kJdzf6EdsDRsMMQySTQ5-22" value="" style="edgeStyle=orthogonalEdgeStyle;rounded=0;orthogonalLoop=1;jettySize=auto;html=1;" edge="1" parent="1" source="kJdzf6EdsDRsMMQySTQ5-17" target="kJdzf6EdsDRsMMQySTQ5-21">
          <mxGeometry relative="1" as="geometry" />
        </mxCell>
        <mxCell id="kJdzf6EdsDRsMMQySTQ5-17" value="4&lt;br&gt;hash:aaaeec92&lt;br&gt;parent hash:cccdddaa03" style="rounded=0;whiteSpace=wrap;html=1;fillColor=#d5e8d4;strokeColor=#82b366;" vertex="1" parent="1">
          <mxGeometry x="1060" y="230" width="150" height="60" as="geometry" />
        </mxCell>
        <mxCell id="kJdzf6EdsDRsMMQySTQ5-18" value="" style="endArrow=classic;html=1;rounded=0;exitX=0.997;exitY=0.601;exitDx=0;exitDy=0;entryX=0;entryY=0.5;entryDx=0;entryDy=0;exitPerimeter=0;fillColor=#d5e8d4;strokeColor=#82b366;" edge="1" parent="1" source="kJdzf6EdsDRsMMQySTQ5-10" target="kJdzf6EdsDRsMMQySTQ5-17">
          <mxGeometry width="50" height="50" relative="1" as="geometry">
            <mxPoint x="960" y="175" as="sourcePoint" />
            <mxPoint x="1030" y="80" as="targetPoint" />
          </mxGeometry>
        </mxCell>
        <mxCell id="kJdzf6EdsDRsMMQySTQ5-19" value="5&lt;br&gt;hash:bbccdd11" style="rounded=0;whiteSpace=wrap;html=1;fillColor=#d5e8d4;strokeColor=#82b366;" vertex="1" parent="1">
          <mxGeometry x="1280" y="50" width="120" height="60" as="geometry" />
        </mxCell>
        <mxCell id="kJdzf6EdsDRsMMQySTQ5-21" value="5&lt;br&gt;hash:aaaeec92" style="rounded=0;whiteSpace=wrap;html=1;fillColor=#d5e8d4;strokeColor=#82b366;" vertex="1" parent="1">
          <mxGeometry x="1260" y="230" width="120" height="60" as="geometry" />
        </mxCell>
      </root>
    </mxGraphModel>
  </diagram>
</mxfile>
